<svg width="24" height="24" viewBox="0 0 24 24" fill="none" xmlns="http://www.w3.org/2000/svg">
<g clip-path="url(#clip0_166_601)">
<path d="M18.6609 0H5.33912C2.3904 0 0 2.3904 0 5.33912V18.6609C0 21.6096 2.3904 24 5.33912 24H18.6609C21.6096 24 24 21.6096 24 18.6609V5.33912C24 2.3904 21.6096 0 18.6609 0Z" fill="url(#paint0_linear_166_601)"/>
<path d="M11.2671 21.0114C10.5511 20.7554 10.3978 20.4075 10.1038 18.3678C9.7625 15.9977 9.68794 14.5305 9.88581 14.0659C10.1479 13.4498 10.8601 13.1 11.8551 13.0962C12.843 13.092 13.5613 13.4451 13.8244 14.0659C14.0232 14.5296 13.9486 15.9977 13.6068 18.3678C13.3747 20.0239 13.2472 20.4426 12.927 20.724C12.4871 21.1136 11.8631 21.2214 11.2709 21.0118L11.2671 21.0114ZM8.2091 18.5793C5.73671 17.363 4.15284 15.3056 3.57705 12.5683C3.43311 11.8617 3.40873 10.177 3.5447 9.52808C3.9048 7.78808 4.59311 6.42739 5.73671 5.22425C7.38481 3.48659 9.50508 2.56805 11.8649 2.56805C14.2009 2.56805 16.3127 3.46971 17.921 5.15532C19.1447 6.42739 19.8326 7.77354 20.1847 9.54731C20.3048 10.1376 20.3048 11.7473 20.1927 12.4112C19.8191 14.5226 18.6619 16.4149 16.9527 17.7095C16.3432 18.1686 14.8569 18.9704 14.6168 18.9704C14.5286 18.9704 14.5207 18.8794 14.561 18.5104C14.6327 17.9182 14.7049 17.7953 15.0407 17.6542C15.5771 17.4306 16.489 16.7807 17.0489 16.219C18.0251 15.2433 18.7189 14.0214 19.0566 12.6832C19.2648 11.8593 19.2409 10.0274 19.0097 9.17924C18.2797 6.48084 16.0806 4.38496 13.385 3.82512C12.6006 3.66476 11.1766 3.66476 10.3842 3.82512C7.65629 4.38496 5.40052 6.58493 4.7108 9.35272C4.527 10.1029 4.527 11.9367 4.7108 12.6888C5.16702 14.5207 6.35187 16.2007 7.90292 17.2008C8.16654 17.3769 8.44195 17.5347 8.72721 17.673C9.06293 17.8169 9.13514 17.9369 9.1989 18.5287C9.23876 18.8888 9.23079 18.9929 9.14311 18.9929C9.08684 18.9929 8.67892 18.817 8.24708 18.6088L8.2091 18.5793ZM8.24098 15.3258C7.40873 14.6618 6.67306 13.484 6.36875 12.3292C6.18495 11.6315 6.18495 10.305 6.37673 9.60967C6.88077 7.73134 8.2649 6.27501 10.185 5.59091C10.8414 5.35929 12.2949 5.30958 13.1047 5.48541C15.8884 6.10433 17.8647 8.89228 17.4826 11.6577C17.3307 12.7723 16.9466 13.6875 16.2668 14.5376C15.9306 14.9671 15.1147 15.6882 14.9708 15.6882C14.9469 15.6882 14.9239 15.4163 14.9239 15.0848V14.4818L15.3403 13.9857C16.9082 12.1074 16.7961 9.48448 15.0843 7.76182C14.4203 7.09179 13.6523 6.69793 12.6602 6.51648C12.0201 6.39785 11.8842 6.39785 11.2123 6.50851C10.192 6.67496 9.40193 7.07116 8.70002 7.76416C6.97689 9.46478 6.86483 12.1041 8.43322 13.9838L8.84584 14.4818V15.0913C8.84584 15.4275 8.81911 15.7009 8.78629 15.7009C8.75347 15.7009 8.52231 15.541 8.27428 15.3408L8.24098 15.3258ZM11.0167 12.0596C10.305 11.7281 9.92098 11.1035 9.913 10.2891C9.913 9.55715 10.3209 8.91854 11.0247 8.54484C11.473 8.31041 12.2649 8.31041 12.7127 8.54484C13.2098 8.81331 13.5829 9.26488 13.7526 9.80378C14.2168 11.3816 12.5448 12.7638 11.0332 12.0577L11.0167 12.0596Z" fill="white"/>
<path d="M11.991 12.3685C13.0929 12.3685 13.9861 11.4753 13.9861 10.3735C13.9861 9.27161 13.0929 8.37839 11.991 8.37839C10.8892 8.37839 9.99597 9.27161 9.99597 10.3735C9.99597 11.4753 10.8892 12.3685 11.991 12.3685Z" fill="white"/>
<path d="M12.1843 13.1417C12.4105 13.1676 12.6341 13.2131 12.8524 13.2777C13.0913 13.3538 13.3169 13.4666 13.5211 13.612C13.6974 13.74 13.8254 13.8727 13.9051 14.034C13.9848 14.1953 14.0251 14.3875 14.049 14.7022C14.065 15.0172 14.065 15.4524 13.9932 16.2701C13.9215 17.0878 13.7771 18.2764 13.665 19.0402C13.553 19.804 13.4732 20.1444 13.3692 20.3925C13.2996 20.5868 13.1814 20.7601 13.026 20.8959C12.8706 21.0317 12.683 21.1255 12.4811 21.1684C12.3287 21.2005 12.173 21.2138 12.0174 21.2083C11.8616 21.2133 11.7058 21.1999 11.5532 21.1684C11.3694 21.1281 11.1312 21.0564 10.953 20.9124C10.7692 20.7685 10.6492 20.5603 10.5531 20.2884C10.4569 20.0164 10.3852 19.6882 10.2891 19.0322C10.193 18.3763 10.065 17.4005 9.98526 16.6564C9.90555 15.9123 9.8732 15.4003 9.86663 15.0562C9.86007 14.712 9.8746 14.5404 9.91352 14.3763C9.9508 14.2194 10.0157 14.0705 10.1053 13.9365C10.1941 13.8109 10.3022 13.7001 10.4255 13.6083C10.5387 13.521 10.6654 13.4529 10.8006 13.4066C10.9655 13.343 11.136 13.2948 11.3098 13.2627C11.5176 13.2228 11.7576 13.183 11.8809 13.1666C11.9669 13.1483 12.0557 13.1483 12.1416 13.1666L12.1843 13.1417Z" fill="white"/>
</g>
<defs>
<linearGradient id="paint0_linear_166_601" x1="12.1032" y1="24.3038" x2="11.8997" y2="-0.000936903" gradientUnits="userSpaceOnUse">
<stop stop-color="#822CBE"/>
<stop offset="1" stop-color="#D772FB"/>
</linearGradient>
<clipPath id="clip0_166_601">
<rect width="24" height="24" fill="white"/>
</clipPath>
</defs>
</svg>
