<svg width="26" height="24" viewBox="0 0 26 24" fill="none" xmlns="http://www.w3.org/2000/svg">
<g clip-path="url(#clip0_225_279)">
<path fill-rule="evenodd" clip-rule="evenodd" d="M5.26491e-06 14.2566C-0.0126485 13.0271 0.455541 11.9367 1.55431 11.5803L1.58173 11.5339C1.61386 11.4708 1.65667 11.4137 1.70827 11.3652C1.77477 11.3164 1.8499 11.2806 1.92971 11.2598L1.99087 11.2366C7.31811 9.27944 9.72021 6.34165 11.1016 4.34657C11.1016 6.3058 11.593 8.85975 12.4576 11.3315C13.3455 13.8622 14.6278 16.3318 16.1926 18.0295C14.5624 17.5656 12.5167 16.975 9.18876 17.4285C9.04939 17.768 8.96949 18.129 8.95255 18.4956C8.94158 18.6099 8.95467 18.7253 8.991 18.8343C9.02732 18.9433 9.08607 19.0434 9.16345 19.1283L9.21406 19.1747C9.42496 19.3666 9.5283 19.4615 9.5747 19.6323C9.60572 19.8585 9.59643 20.0885 9.54728 20.3114L9.5283 20.4527C9.45027 21.0707 9.74974 21.1972 10.0471 21.3237C10.3445 21.4503 10.5765 21.5515 10.6967 21.891C10.7051 21.9185 10.7051 21.9479 10.6967 21.9754C10.5743 22.6081 10.1694 22.954 9.76239 23.3019C9.66327 23.3884 9.56204 23.4749 9.47558 23.5571H9.46292C8.63621 24.2193 8.07733 24.0422 7.65343 23.5107C7.32022 23.0889 7.08823 22.4562 6.87312 21.8636L6.78032 21.6063C6.43196 20.5645 6.15019 19.5015 5.93674 18.4239L5.86503 18.1076C5.68155 18.1582 5.48964 18.2151 5.28928 18.2742C5.03621 18.348 4.78313 18.4281 4.53217 18.5083L4.45203 18.5378C4.41038 18.5652 4.36163 18.5798 4.31178 18.5798C4.26193 18.5798 4.21318 18.5652 4.17153 18.5378C2.84078 18.9807 1.72935 18.348 0.987 17.2935C0.673604 16.8485 0.431011 16.3576 0.267844 15.8383C0.100721 15.3272 0.0104561 14.7942 5.26491e-06 14.2566ZM18.5188 3.40808C18.4521 3.45892 18.376 3.496 18.2949 3.51717C18.2138 3.53835 18.1293 3.54319 18.0463 3.53141C17.9633 3.51964 17.8835 3.49149 17.8114 3.44859C17.7394 3.4057 17.6766 3.34892 17.6267 3.28155L17.612 3.26257C17.5153 3.12677 17.4751 2.95874 17.4999 2.7939C17.5247 2.62906 17.6125 2.48028 17.7448 2.37891C18.7698 1.62179 19.7905 0.858349 20.8155 0.118103C20.9507 0.0202372 21.1182 -0.0220348 21.2837 8.85688e-07C21.4525 0.0258934 21.6042 0.117658 21.7055 0.255185V0.26573C21.8027 0.401831 21.8422 0.570929 21.8151 0.736029C21.803 0.819834 21.7741 0.900349 21.7303 0.972802C21.6865 1.04525 21.6285 1.10817 21.5599 1.15782L18.5188 3.40808ZM21.8489 15.5768C21.7654 15.5751 21.6831 15.5569 21.6068 15.5232C21.5304 15.4895 21.4614 15.4411 21.4039 15.3807C21.3457 15.321 21.3 15.2503 21.2692 15.1729C21.2385 15.0954 21.2233 15.0127 21.2246 14.9293V14.9146C21.2246 14.8302 21.2414 14.7467 21.2741 14.669C21.3069 14.5913 21.3548 14.5209 21.4151 14.4619C21.4754 14.403 21.5469 14.3567 21.6254 14.3258C21.7039 14.2948 21.7877 14.2799 21.8721 14.2819C23.0046 14.2819 24.1561 14.3241 25.2886 14.3452C25.4588 14.349 25.6207 14.4198 25.7391 14.5422C25.8575 14.6646 25.923 14.8287 25.9213 14.9989C25.9179 15.17 25.8475 15.3328 25.7251 15.4524C25.6651 15.5114 25.5939 15.5578 25.5156 15.589C25.4374 15.6201 25.3538 15.6353 25.2696 15.6337L21.8552 15.5684L21.8489 15.5768ZM21.948 12.2636C21.8643 12.2708 21.7801 12.2613 21.7002 12.2356C21.6203 12.2099 21.5463 12.1686 21.4825 12.1141C21.4187 12.0595 21.3664 11.9928 21.3286 11.9178C21.2909 11.8428 21.2684 11.7611 21.2626 11.6773V11.6626C21.2531 11.4955 21.3086 11.3313 21.4175 11.2043C21.5264 11.0774 21.6802 10.9974 21.8468 10.9814C22.9012 10.897 23.9747 10.8063 25.0313 10.7388C25.2001 10.7284 25.3663 10.7846 25.4941 10.8954C25.6219 11.0062 25.7011 11.1628 25.7146 11.3315C25.7213 11.4155 25.7111 11.5 25.6847 11.58C25.6582 11.6601 25.616 11.734 25.5606 11.7975C25.4494 11.9267 25.2919 12.007 25.122 12.0211C24.0991 12.1223 22.975 12.2067 21.948 12.2615V12.2636ZM21.4924 9.18664C21.4109 9.2098 21.3256 9.21666 21.2413 9.20683C21.1571 9.19699 21.0757 9.17066 21.0016 9.12933C20.9276 9.08801 20.8624 9.0325 20.8099 8.96598C20.7573 8.89946 20.7184 8.82323 20.6953 8.74165C20.6721 8.66106 20.6653 8.57668 20.675 8.49341C20.6848 8.41013 20.711 8.32964 20.7522 8.25659C20.8357 8.10746 20.9742 7.99693 21.1381 7.94868C22.2369 7.65975 23.3315 7.30545 24.4302 7.01019C24.5108 6.98707 24.5952 6.9802 24.6785 6.98997C24.7617 6.99975 24.8422 7.02598 24.9153 7.06714C25.0626 7.14918 25.1723 7.28531 25.2211 7.44675C25.2674 7.61118 25.2468 7.78723 25.1638 7.93655C25.0809 8.08587 24.9423 8.19635 24.7782 8.24394L21.4903 9.18243L21.4924 9.18664ZM20.1638 6.16661C20.0882 6.20427 20.0059 6.22668 19.9216 6.23254C19.8374 6.23841 19.7528 6.22762 19.6727 6.20079C19.5926 6.17396 19.5186 6.13162 19.4548 6.07618C19.3911 6.02074 19.3389 5.95329 19.3012 5.87768C19.2627 5.80234 19.2397 5.72002 19.2335 5.63562C19.2274 5.55122 19.2382 5.46643 19.2654 5.38629C19.3199 5.22438 19.4357 5.09033 19.5881 5.01301L22.7515 3.43339C22.8268 3.39427 22.9092 3.37071 22.9939 3.36411C23.0785 3.3575 23.1636 3.36799 23.244 3.39495C23.3245 3.42191 23.3988 3.46479 23.4623 3.52103C23.5259 3.57727 23.5775 3.64572 23.6141 3.72232C23.6523 3.79781 23.6749 3.88019 23.6807 3.9646C23.6865 4.049 23.6753 4.13371 23.6478 4.21371C23.5933 4.37506 23.4773 4.50842 23.3251 4.58489L20.1617 6.16661H20.1638ZM12.3902 2.53076C12.4176 2.49912 12.4471 2.4696 12.4745 2.44218C12.5611 2.34319 12.6674 2.26344 12.7866 2.20809C12.9228 2.16247 13.0691 2.15662 13.2084 2.19121C13.683 2.26714 14.1912 2.61301 14.7079 3.14236C15.9733 4.4478 17.3062 6.93849 18.2552 9.55571C19.2042 12.1729 19.7736 14.904 19.4889 16.6777C19.3814 17.3378 19.1578 17.8714 18.7909 18.2236L18.7719 18.2383C18.6176 18.3492 18.439 18.4215 18.251 18.4492C18.2343 18.434 18.2167 18.4199 18.1982 18.407C16.935 17.5044 15.8172 16.007 14.8766 14.246C15.1171 14.2924 15.425 14.1132 15.7202 13.8074C17.1965 12.251 16.471 9.53041 14.6299 8.89983C13.8791 8.64675 13.1325 8.64675 12.8373 8.79227L12.8056 8.80914C12.1308 6.20457 11.9388 3.79613 12.3902 2.53076Z" fill="#EC6643"/>
</g>
<defs>
<clipPath id="clip0_225_279">
<rect width="25.9149" height="24" fill="white"/>
</clipPath>
</defs>
</svg>
