<svg width="24" height="24" viewBox="0 0 24 24" fill="none" xmlns="http://www.w3.org/2000/svg">
<g clip-path="url(#clip0_166_631)">
<path d="M12 -2.43026e-05C11.71 -2.43026e-05 11.42 0.0679757 11.188 0.205976L2.41704 5.39198C1.95704 5.66398 1.61304 6.26698 1.61304 6.79998V17.2C1.61304 17.733 1.95704 18.335 2.41704 18.607L11.187 23.794C11.652 24.069 12.349 24.069 12.813 23.794L21.583 18.607C22.043 18.335 22.387 17.733 22.387 17.2V6.79998C22.387 6.26698 22.043 5.66398 21.583 5.39198L12.813 0.205976C12.5649 0.0670451 12.2844 -0.00400864 12 -2.43026e-05ZM11.15 8.30398C11.544 8.30398 11.864 8.60698 11.864 8.97998V11.204C11.864 11.411 12.055 11.579 12.291 11.579C12.527 11.579 12.719 11.411 12.719 11.204V9.56998C12.719 9.19698 13.039 8.89498 13.432 8.89498C13.826 8.89498 14.144 9.19698 14.144 9.56998V14.283C14.144 14.657 13.826 14.959 13.432 14.959C13.038 14.959 12.719 14.657 12.719 14.283V12.973C12.719 12.767 12.527 12.599 12.291 12.599C12.055 12.599 11.864 12.767 11.864 12.973V14.199C11.864 14.573 11.544 14.875 11.151 14.875C10.757 14.875 10.438 14.573 10.438 14.199V12.532C10.438 12.325 10.246 12.157 10.01 12.157C9.77504 12.157 9.58304 12.325 9.58304 12.532V15.842C9.58304 16.215 9.26404 16.518 8.87104 16.518C8.47704 16.518 8.15804 16.215 8.15804 15.842V13.415C8.15804 13.209 7.96704 13.041 7.73004 13.041C7.49504 13.041 7.30304 13.209 7.30304 13.415V13.593C7.30277 13.6862 7.28415 13.7785 7.24823 13.8645C7.2123 13.9506 7.15978 14.0287 7.09367 14.0944C7.02755 14.1602 6.94914 14.2123 6.8629 14.2477C6.77665 14.2831 6.68428 14.3012 6.59104 14.301C6.49771 14.3014 6.40523 14.2834 6.31887 14.248C6.23252 14.2126 6.15398 14.1605 6.08776 14.0948C6.02154 14.029 5.96893 13.9509 5.93294 13.8648C5.89696 13.7787 5.8783 13.6863 5.87804 13.593V11.47C5.8783 11.3767 5.89696 11.2843 5.93294 11.1982C5.96893 11.1121 6.02154 11.0339 6.08776 10.9682C6.15398 10.9024 6.23252 10.8503 6.31887 10.815C6.40523 10.7796 6.49771 10.7616 6.59104 10.762C6.68428 10.7617 6.77665 10.7798 6.8629 10.8153C6.94914 10.8507 7.02755 10.9028 7.09367 10.9685C7.15978 11.0343 7.2123 11.1124 7.24823 11.1984C7.28415 11.2845 7.30277 11.3767 7.30304 11.47V11.648C7.30304 11.854 7.49504 12.021 7.73004 12.021C7.96704 12.021 8.15804 11.854 8.15804 11.648V10.118C8.15804 9.74398 8.47804 9.44198 8.87104 9.44198C9.26404 9.44198 9.58304 9.74498 9.58304 10.118V10.764C9.58304 10.97 9.77504 11.138 10.01 11.138C10.246 11.138 10.438 10.97 10.438 10.764V8.97998C10.438 8.60698 10.757 8.30398 11.151 8.30398H11.15ZM15.712 10.72C16.105 10.72 16.425 11.022 16.425 11.396V14.087C16.425 14.461 16.105 14.763 15.712 14.763C15.318 14.763 15 14.46 15 14.087V11.396C15 11.022 15.319 10.72 15.712 10.72ZM17.992 12.088C18.387 12.088 18.705 12.391 18.705 12.764V13.434C18.705 13.808 18.387 14.11 17.993 14.11C17.599 14.11 17.28 13.808 17.28 13.435V12.765C17.28 12.391 17.599 12.088 17.992 12.088Z" fill="url(#paint0_linear_166_631)"/>
</g>
<defs>
<linearGradient id="paint0_linear_166_631" x1="12" y1="-0.000183105" x2="12" y2="24.0002" gradientUnits="userSpaceOnUse">
<stop stop-color="#FF8B4A"/>
<stop offset="1" stop-color="#FF7036"/>
</linearGradient>
<clipPath id="clip0_166_631">
<rect width="24" height="24" fill="white"/>
</clipPath>
</defs>
</svg>
