<svg width="24" height="24" viewBox="0 0 24 24" fill="none" xmlns="http://www.w3.org/2000/svg">
<g clip-path="url(#clip0_222_161)">
<path d="M12 0C5.37075 0 0 5.37075 0 12C0 18.6292 5.37075 24 12 24C18.6292 24 24 18.6292 24 12C24 5.37075 18.6292 0 12 0ZM11.9963 13.992C9.2625 13.992 9.2625 9.88725 11.9963 9.88725C14.7345 9.88725 14.7345 13.992 11.9963 13.992ZM16.992 18.8438L14.9797 16.0545C18.957 13.1475 16.8945 6.85425 11.973 6.8625C7.047 6.8745 5.01225 13.1752 9 16.0658L6.984 18.8587C3.98775 16.6905 2.727 12.84 3.86325 9.3195C5.004 5.80425 8.2815 3.41775 11.9805 3.4215C16.6882 3.4215 20.5042 7.2375 20.5042 11.9445C20.508 14.6753 19.203 17.2418 16.992 18.8438Z" fill="white"/>
</g>
<defs>
<clipPath id="clip0_222_161">
<rect width="24" height="24" fill="white"/>
</clipPath>
</defs>
</svg>
