<svg width="20" height="20" viewBox="0 0 20 20" fill="none" xmlns="http://www.w3.org/2000/svg">
<g clip-path="url(#clip0_166_596)">
<path d="M9.99996 18.3333C5.39746 18.3333 1.66663 14.6025 1.66663 9.99999C1.66663 5.39749 5.39746 1.66666 9.99996 1.66666C14.6025 1.66666 18.3333 5.39749 18.3333 9.99999C18.3333 14.6025 14.6025 18.3333 9.99996 18.3333ZM8.09163 16.3892C7.26947 14.6453 6.79319 12.7585 6.68913 10.8333H3.38496C3.54711 12.1157 4.07823 13.3235 4.91377 14.3097C5.74931 15.296 6.8533 16.0184 8.09163 16.3892V16.3892ZM8.35829 10.8333C8.48413 12.8658 9.06496 14.775 9.99996 16.46C10.9602 14.7305 11.5212 12.8079 11.6416 10.8333H8.35829V10.8333ZM16.615 10.8333H13.3108C13.2067 12.7585 12.7304 14.6453 11.9083 16.3892C13.1466 16.0184 14.2506 15.296 15.0862 14.3097C15.9217 13.3235 16.4528 12.1157 16.615 10.8333V10.8333ZM3.38496 9.16666H6.68913C6.79319 7.24148 7.26947 5.35473 8.09163 3.61082C6.8533 3.98156 5.74931 4.70395 4.91377 5.69024C4.07823 6.67652 3.54711 7.88424 3.38496 9.16666V9.16666ZM8.35913 9.16666H11.6408C11.5206 7.19216 10.9599 5.2696 9.99996 3.53999C9.03969 5.26953 8.47876 7.19209 8.35829 9.16666H8.35913ZM11.9083 3.61082C12.7304 5.35473 13.2067 7.24148 13.3108 9.16666H16.615C16.4528 7.88424 15.9217 6.67652 15.0862 5.69024C14.2506 4.70395 13.1466 3.98156 11.9083 3.61082V3.61082Z" fill="white"/>
</g>
<defs>
<clipPath id="clip0_166_596">
<rect width="20" height="20" fill="white"/>
</clipPath>
</defs>
</svg>
