<svg width="32" height="32" viewBox="0 0 32 32" fill="none" xmlns="http://www.w3.org/2000/svg">
<g filter="url(#filter0_b_166_589)">
<rect width="32" height="32" rx="11" fill="#7A43C8" fill-opacity="0.7"/>
<g clip-path="url(#clip0_166_589)">
<path d="M16 13.5C15.3369 13.5 14.701 13.7634 14.2322 14.2322C13.7634 14.7011 13.5 15.3369 13.5 16C13.5 16.663 13.7634 17.2989 14.2322 17.7678C14.701 18.2366 15.3369 18.5 16 18.5C16.663 18.5 17.2989 18.2366 17.7677 17.7678C18.2366 17.2989 18.5 16.663 18.5 16C18.5 15.3369 18.2366 14.7011 17.7677 14.2322C17.2989 13.7634 16.663 13.5 16 13.5ZM16 11.8333C17.105 11.8333 18.1648 12.2723 18.9462 13.0537C19.7276 13.8351 20.1666 14.8949 20.1666 16C20.1666 17.1051 19.7276 18.1649 18.9462 18.9463C18.1648 19.7277 17.105 20.1667 16 20.1667C14.8949 20.1667 13.8351 19.7277 13.0537 18.9463C12.2723 18.1649 11.8333 17.1051 11.8333 16C11.8333 14.8949 12.2723 13.8351 13.0537 13.0537C13.8351 12.2723 14.8949 11.8333 16 11.8333V11.8333ZM21.4166 11.625C21.4166 11.9013 21.3069 12.1662 21.1115 12.3616C20.9162 12.5569 20.6512 12.6667 20.375 12.6667C20.0987 12.6667 19.8337 12.5569 19.6384 12.3616C19.443 12.1662 19.3333 11.9013 19.3333 11.625C19.3333 11.3487 19.443 11.0838 19.6384 10.8884C19.8337 10.6931 20.0987 10.5833 20.375 10.5833C20.6512 10.5833 20.9162 10.6931 21.1115 10.8884C21.3069 11.0838 21.4166 11.3487 21.4166 11.625V11.625ZM16 9.33332C13.9383 9.33332 13.6016 9.33916 12.6425 9.38166C11.9891 9.41249 11.5508 9.49999 11.1441 9.65832C10.7825 9.79832 10.5216 9.96582 10.2441 10.2442C9.9833 10.4962 9.78275 10.8038 9.65746 11.1442C9.49913 11.5525 9.41163 11.99 9.38163 12.6425C9.33829 13.5625 9.33329 13.8842 9.33329 16C9.33329 18.0617 9.33913 18.3983 9.38163 19.3575C9.41246 20.01 9.49996 20.4492 9.65746 20.855C9.79913 21.2175 9.96579 21.4783 10.2425 21.755C10.5233 22.035 10.7841 22.2025 11.1425 22.3408C11.5541 22.5 11.9925 22.5883 12.6425 22.6183C13.5625 22.6617 13.8841 22.6667 16 22.6667C18.0616 22.6667 18.3983 22.6608 19.3575 22.6183C20.0091 22.5875 20.4483 22.5 20.855 22.3425C21.2158 22.2017 21.4783 22.0342 21.755 21.7575C22.0358 21.4767 22.2033 21.2158 22.3416 20.8575C22.5 20.4467 22.5883 20.0075 22.6183 19.3575C22.6616 18.4375 22.6666 18.1158 22.6666 16C22.6666 13.9383 22.6608 13.6017 22.6183 12.6425C22.5875 11.9908 22.5 11.5508 22.3416 11.1442C22.216 10.8042 22.0159 10.4966 21.7558 10.2442C21.5039 9.98319 21.1962 9.78263 20.8558 9.65749C20.4475 9.49916 20.0091 9.41166 19.3575 9.38166C18.4375 9.33832 18.1158 9.33332 16 9.33332ZM16 7.66666C18.2641 7.66666 18.5466 7.67499 19.435 7.71666C20.3225 7.75832 20.9266 7.89749 21.4583 8.10416C22.0083 8.31582 22.4716 8.60249 22.935 9.06499C23.3587 9.48157 23.6866 9.98548 23.8958 10.5417C24.1016 11.0725 24.2416 11.6775 24.2833 12.565C24.3225 13.4533 24.3333 13.7358 24.3333 16C24.3333 18.2642 24.325 18.5467 24.2833 19.435C24.2416 20.3225 24.1016 20.9267 23.8958 21.4583C23.6872 22.0148 23.3592 22.5188 22.935 22.935C22.5183 23.3586 22.0144 23.6865 21.4583 23.8958C20.9275 24.1017 20.3225 24.2417 19.435 24.2833C18.5466 24.3225 18.2641 24.3333 16 24.3333C13.7358 24.3333 13.4533 24.325 12.565 24.2833C11.6775 24.2417 11.0733 24.1017 10.5416 23.8958C9.98523 23.6871 9.48123 23.3591 9.06496 22.935C8.64113 22.5185 8.31324 22.0145 8.10413 21.4583C7.89746 20.9275 7.75829 20.3225 7.71663 19.435C7.67746 18.5467 7.66663 18.2642 7.66663 16C7.66663 13.7358 7.67496 13.4533 7.71663 12.565C7.75829 11.6767 7.89746 11.0733 8.10413 10.5417C8.31266 9.98514 8.64063 9.48109 9.06496 9.06499C9.48135 8.64102 9.98532 8.3131 10.5416 8.10416C11.0733 7.89749 11.6766 7.75832 12.565 7.71666C13.4533 7.67749 13.7358 7.66666 16 7.66666Z" fill="white"/>
</g>
</g>
<defs>
<filter id="filter0_b_166_589" x="-4" y="-4" width="40" height="40" filterUnits="userSpaceOnUse" color-interpolation-filters="sRGB">
<feFlood flood-opacity="0" result="BackgroundImageFix"/>
<feGaussianBlur in="BackgroundImageFix" stdDeviation="2"/>
<feComposite in2="SourceAlpha" operator="in" result="effect1_backgroundBlur_166_589"/>
<feBlend mode="normal" in="SourceGraphic" in2="effect1_backgroundBlur_166_589" result="shape"/>
</filter>
<clipPath id="clip0_166_589">
<rect width="20" height="20" fill="white" transform="translate(6 6)"/>
</clipPath>
</defs>
</svg>
