<svg width="26" height="24" viewBox="0 0 26 24" fill="none" xmlns="http://www.w3.org/2000/svg">
<g clip-path="url(#clip0_166_616)">
<path fill-rule="evenodd" clip-rule="evenodd" d="M5.26491e-06 14.2566C-0.0126485 13.027 0.455541 11.9367 1.55431 11.5803L1.58173 11.5339C1.61386 11.4708 1.65667 11.4137 1.70827 11.3652C1.77477 11.3164 1.8499 11.2806 1.92971 11.2597L1.99087 11.2365C7.31811 9.27941 9.72021 6.34162 11.1016 4.34654C11.1016 6.30577 11.593 8.85972 12.4576 11.3314C13.3455 13.8622 14.6278 16.3318 16.1926 18.0295C14.5624 17.5655 12.5167 16.975 9.18876 17.4284C9.04939 17.768 8.96949 18.1289 8.95255 18.4956C8.94158 18.6099 8.95467 18.7253 8.991 18.8343C9.02732 18.9432 9.08607 19.0434 9.16345 19.1283L9.21406 19.1747C9.42496 19.3666 9.5283 19.4615 9.5747 19.6323C9.60572 19.8585 9.59643 20.0884 9.54728 20.3114L9.5283 20.4527C9.45027 21.0706 9.74974 21.1972 10.0471 21.3237C10.3445 21.4502 10.5765 21.5515 10.6967 21.891C10.7051 21.9185 10.7051 21.9479 10.6967 21.9754C10.5743 22.6081 10.1694 22.9539 9.76239 23.3019C9.66327 23.3884 9.56204 23.4748 9.47558 23.5571H9.46292C8.63621 24.2193 8.07733 24.0421 7.65343 23.5107C7.32022 23.0889 7.08823 22.4562 6.87312 21.8636L6.78032 21.6063C6.43196 20.5644 6.15019 19.5015 5.93674 18.4239L5.86503 18.1075C5.68155 18.1581 5.48964 18.2151 5.28928 18.2741C5.03621 18.3479 4.78313 18.4281 4.53217 18.5082L4.45203 18.5378C4.41038 18.5651 4.36163 18.5797 4.31178 18.5797C4.26193 18.5797 4.21318 18.5651 4.17153 18.5378C2.84078 18.9806 1.72935 18.3479 0.987 17.2935C0.673604 16.8484 0.431011 16.3576 0.267844 15.8383C0.100721 15.3272 0.0104561 14.7942 5.26491e-06 14.2566ZM18.5188 3.40805C18.4521 3.45889 18.376 3.49597 18.2949 3.51714C18.2138 3.53832 18.1293 3.54316 18.0463 3.53138C17.9633 3.51961 17.8835 3.49146 17.8114 3.44856C17.7394 3.40567 17.6766 3.34889 17.6267 3.28152L17.612 3.26254C17.5153 3.12674 17.4751 2.95871 17.4999 2.79387C17.5247 2.62903 17.6125 2.48025 17.7448 2.37888C18.7698 1.62176 19.7905 0.858318 20.8155 0.118072C20.9507 0.0202066 21.1182 -0.0220653 21.2837 -2.96318e-05C21.4525 0.0258629 21.6042 0.117628 21.7055 0.255155V0.2657C21.8027 0.4018 21.8422 0.570899 21.8151 0.735998C21.803 0.819804 21.7741 0.900319 21.7303 0.972771C21.6865 1.04522 21.6285 1.10814 21.5599 1.15779L18.5188 3.40805ZM21.8489 15.5768C21.7654 15.575 21.6831 15.5568 21.6068 15.5232C21.5304 15.4895 21.4614 15.4411 21.4039 15.3806C21.3457 15.3209 21.3 15.2503 21.2692 15.1729C21.2385 15.0954 21.2233 15.0126 21.2246 14.9293V14.9146C21.2246 14.8302 21.2414 14.7467 21.2741 14.669C21.3069 14.5912 21.3548 14.5208 21.4151 14.4619C21.4754 14.4029 21.5469 14.3566 21.6254 14.3257C21.7039 14.2948 21.7877 14.2799 21.8721 14.2819C23.0046 14.2819 24.1561 14.324 25.2886 14.3451C25.4588 14.349 25.6207 14.4198 25.7391 14.5422C25.8575 14.6645 25.923 14.8286 25.9213 14.9989C25.9179 15.1699 25.8475 15.3328 25.7251 15.4523C25.6651 15.5114 25.5939 15.5578 25.5156 15.5889C25.4374 15.6201 25.3538 15.6353 25.2696 15.6337L21.8552 15.5683L21.8489 15.5768ZM21.948 12.2636C21.8643 12.2708 21.7801 12.2613 21.7002 12.2356C21.6203 12.2099 21.5463 12.1686 21.4825 12.114C21.4187 12.0595 21.3664 11.9927 21.3286 11.9178C21.2909 11.8428 21.2684 11.761 21.2626 11.6773V11.6625C21.2531 11.4955 21.3086 11.3313 21.4175 11.2043C21.5264 11.0773 21.6802 10.9974 21.8468 10.9813C22.9012 10.897 23.9747 10.8063 25.0313 10.7388C25.2001 10.7283 25.3663 10.7845 25.4941 10.8954C25.6219 11.0062 25.7011 11.1628 25.7146 11.3314C25.7213 11.4155 25.7111 11.5 25.6847 11.58C25.6582 11.66 25.616 11.734 25.5606 11.7975C25.4494 11.9267 25.2919 12.007 25.122 12.0211C24.0991 12.1223 22.975 12.2066 21.948 12.2615V12.2636ZM21.4924 9.18661C21.4109 9.20977 21.3256 9.21663 21.2413 9.20679C21.1571 9.19696 21.0757 9.17063 21.0016 9.1293C20.9276 9.08798 20.8624 9.03247 20.8099 8.96595C20.7573 8.89943 20.7184 8.8232 20.6953 8.74162C20.6721 8.66103 20.6653 8.57665 20.675 8.49338C20.6848 8.4101 20.711 8.32961 20.7522 8.25656C20.8357 8.10743 20.9742 7.9969 21.1381 7.94865C22.2369 7.65972 23.3315 7.30542 24.4302 7.01016C24.5108 6.98704 24.5952 6.98017 24.6785 6.98994C24.7617 6.99972 24.8422 7.02595 24.9153 7.06711C25.0626 7.14915 25.1723 7.28528 25.2211 7.44672C25.2674 7.61115 25.2468 7.7872 25.1638 7.93652C25.0809 8.08584 24.9423 8.19632 24.7782 8.24391L21.4903 9.1824L21.4924 9.18661ZM20.1638 6.16658C20.0882 6.20424 20.0059 6.22665 19.9216 6.23251C19.8374 6.23838 19.7528 6.22759 19.6727 6.20076C19.5926 6.17393 19.5186 6.13158 19.4548 6.07615C19.3911 6.02071 19.3389 5.95326 19.3012 5.87765C19.2627 5.8023 19.2397 5.71999 19.2335 5.63559C19.2274 5.55118 19.2382 5.4664 19.2654 5.38626C19.3199 5.22435 19.4357 5.0903 19.5881 5.01298L22.7515 3.43336C22.8268 3.39424 22.9092 3.37068 22.9939 3.36408C23.0785 3.35747 23.1636 3.36796 23.244 3.39492C23.3245 3.42188 23.3988 3.46476 23.4623 3.521C23.5259 3.57724 23.5775 3.64569 23.6141 3.72229C23.6523 3.79778 23.6749 3.88016 23.6807 3.96457C23.6865 4.04897 23.6753 4.13368 23.6478 4.21368C23.5933 4.37503 23.4773 4.50839 23.3251 4.58486L20.1617 6.16658H20.1638ZM12.3902 2.53073C12.4176 2.49909 12.4471 2.46957 12.4745 2.44215C12.5611 2.34316 12.6674 2.26341 12.7866 2.20805C12.9228 2.16244 13.0691 2.15659 13.2084 2.19118C13.683 2.26711 14.1912 2.61298 14.7079 3.14233C15.9733 4.44777 17.3062 6.93846 18.2552 9.55568C19.2042 12.1729 19.7736 14.904 19.4889 16.6776C19.3814 17.3378 19.1578 17.8713 18.7909 18.2235L18.7719 18.2383C18.6176 18.3492 18.439 18.4215 18.251 18.4492C18.2343 18.434 18.2167 18.4199 18.1982 18.407C16.935 17.5044 15.8172 16.007 14.8766 14.246C15.1171 14.2924 15.425 14.1132 15.7202 13.8074C17.1965 12.2509 16.471 9.53037 14.6299 8.89979C13.8791 8.64672 13.1325 8.64672 12.8373 8.79224L12.8056 8.80911C12.1308 6.20454 11.9388 3.7961 12.3902 2.53073Z" fill="#EC6643"/>
</g>
<defs>
<clipPath id="clip0_166_616">
<rect width="25.9149" height="24" fill="white"/>
</clipPath>
</defs>
</svg>
