<svg width="26" height="26" viewBox="0 0 26 26" fill="none" xmlns="http://www.w3.org/2000/svg">
<path d="M13 25C19.6274 25 25 19.6274 25 13C25 6.37258 19.6274 1 13 1C6.37258 1 1 6.37258 1 13C1 19.6274 6.37258 25 13 25Z" stroke="#FC7E0F" stroke-width="1.57714" stroke-linecap="round"/>
<path d="M6.48572 7.93257C6.48572 7.93257 4.82629 9.80457 4.82629 13.0754C4.82629 16.3463 6.48572 18.1429 6.48572 18.1429" stroke="#FC7E0F" stroke-width="1.57714" stroke-linecap="round"/>
<path d="M19.7063 7.93257C19.7063 7.93257 21.3657 9.80457 21.3657 13.0754C21.3657 16.3463 19.7063 18.1429 19.7063 18.1429" stroke="#FC7E0F" stroke-width="1.57714" stroke-linecap="round"/>
<path d="M17.0594 10.12C17.0594 10.12 18.1772 11.512 18.1497 13.0686C18.1154 14.9406 17.0732 15.9691 17.0732 15.9691" stroke="#FC7E0F" stroke-width="1.57714" stroke-linecap="round"/>
<path d="M9.07772 10.12C9.07772 10.12 7.96001 11.512 7.98744 13.0686C8.02172 14.9406 9.06401 15.9691 9.06401 15.9691" stroke="#FC7E0F" stroke-width="1.57714" stroke-linecap="round"/>
<path d="M12.9999 15.1943C14.2118 15.1943 15.1942 14.2119 15.1942 13C15.1942 11.7881 14.2118 10.8057 12.9999 10.8057C11.7881 10.8057 10.8057 11.7881 10.8057 13C10.8057 14.2119 11.7881 15.1943 12.9999 15.1943Z" fill="#FC7E0F"/>
<path d="M13.3703 15.0503L11.8137 14.632L9.22168 24.3143L10.7783 24.7326L13.3703 15.0503Z" fill="#FC7E0F"/>
<path d="M12.7668 15.0366L14.3166 14.6252L16.8948 24.3143L15.3451 24.7257L12.7668 15.0366Z" fill="#FC7E0F"/>
<path d="M11.3268 20.2617L11.9028 19.672L15.8936 23.56L15.3176 24.1497L11.3268 20.2617Z" fill="#FC7E0F"/>
<path d="M14.7074 20.2823L14.1863 19.7543L10.2297 23.6834L10.7509 24.2114L14.7074 20.2823Z" fill="#FC7E0F"/>
</svg>
