<svg width="24" height="24" viewBox="0 0 24 24" fill="none" xmlns="http://www.w3.org/2000/svg">
<path d="M12 21C10.22 21 8.47991 20.4722 6.99987 19.4832C5.51983 18.4943 4.36628 17.0887 3.68509 15.4442C3.0039 13.7996 2.82567 11.99 3.17294 10.2442C3.5202 8.49836 4.37737 6.89472 5.63604 5.63604C6.89472 4.37737 8.49836 3.5202 10.2442 3.17294C11.99 2.82567 13.7996 3.0039 15.4442 3.68509C17.0887 4.36628 18.4943 5.51983 19.4832 6.99987C20.4722 8.47991 21 10.22 21 12H24C24 9.62663 23.2962 7.30655 21.9776 5.33316C20.6591 3.35977 18.7849 1.8217 16.5922 0.913451C14.3995 0.00519943 11.9867 -0.232441 9.65892 0.230582C7.33115 0.693605 5.19295 1.83649 3.51472 3.51472C1.83649 5.19295 0.693605 7.33115 0.230582 9.65892C-0.232441 11.9867 0.00519943 14.3995 0.913451 16.5922C1.8217 18.7849 3.35977 20.6591 5.33316 21.9776C7.30655 23.2962 9.62663 24 12 24V21ZM12 16.5625C11.0976 16.5625 10.2155 16.2949 9.46521 15.7936C8.71492 15.2922 8.13013 14.5797 7.7848 13.746C7.43948 12.9123 7.34913 11.9949 7.52517 11.1099C7.70122 10.2249 8.13575 9.41191 8.77383 8.77383C9.41191 8.13575 10.2249 7.70122 11.1099 7.52517C11.9949 7.34913 12.9123 7.43948 13.746 7.7848C14.5797 8.13013 15.2922 8.71492 15.7936 9.46521C16.2949 10.2155 16.5625 11.0976 16.5625 12H19.1875C19.1875 10.5785 18.766 9.18882 17.9762 8.00684C17.1864 6.82486 16.0639 5.90363 14.7505 5.35962C13.4372 4.81562 11.992 4.67328 10.5978 4.95061C9.20355 5.22794 7.92286 5.91248 6.91767 6.91767C5.91248 7.92286 5.22794 9.20355 4.95061 10.5978C4.67328 11.992 4.81562 13.4372 5.35962 14.7505C5.90363 16.0639 6.82486 17.1864 8.00684 17.9762C9.18882 18.766 10.5785 19.1875 12 19.1875V16.5625Z" fill="white"/>
</svg>
