<svg width="27" height="24" viewBox="0 0 27 24" fill="none" xmlns="http://www.w3.org/2000/svg">
<path d="M15.1313 0.165909C16.0099 0.400878 16.9089 0.605201 17.7773 0.870818C20.6582 1.75962 23.0794 3.35332 25 5.68259C25.2758 6.01972 25.5619 6.35685 25.8071 6.71441C26.3996 7.57256 26.2975 8.5533 25.5721 9.03346C24.8059 9.55448 23.8252 9.32973 23.2224 8.44093C22.2723 7.07197 21.0566 5.91756 19.6468 5.03897C18.0122 4.00715 16.2346 3.49635 14.3242 3.27159C12.281 3.03663 10.34 3.35332 8.44998 4.0991C6.26374 4.94703 4.38398 6.43858 3.04568 8.3592C2.74941 8.77806 2.43271 9.15605 1.91169 9.23778C1.2783 9.33994 0.665333 9.23778 0.287339 8.64525C-0.0906557 8.05272 -0.111087 7.37845 0.317987 6.837C1.11484 5.83583 1.91169 4.81422 2.85157 3.96629C4.7109 2.28063 6.92778 1.19773 9.35921 0.574552C9.93131 0.42131 10.5136 0.278285 11.0959 0.13526C13.037 0.00245133 13.4456 -0.0997091 15.1313 0.165909Z" fill="#BBDD8D"/>
<path d="M12.7918 13.6205C15.6523 13.5388 18.0122 16.0417 17.9509 18.8715C17.8896 21.7218 15.5706 24 12.7203 24C9.74743 23.9898 7.52032 21.4051 7.55097 18.7183C7.58162 16.2154 9.71678 13.5081 12.7918 13.6205Z" fill="#8EC642"/>
<path d="M12.71 16.0928C11.1572 16.103 10.0334 17.2676 10.0539 18.8307C10.0743 20.3324 11.3002 21.5379 12.802 21.5277C14.2833 21.5073 15.499 20.2405 15.4786 18.7489C15.4582 17.2267 14.2629 16.0825 12.71 16.0928Z" fill="white"/>
<path d="M4.51685 10.5148C4.63944 10.1675 4.70073 9.77924 4.91527 9.48297C8.71565 4.1604 16.7966 3.92543 20.74 9.50341C21.5062 10.5965 21.0158 11.8429 19.7592 12.0166C19.0645 12.1187 18.5435 11.7714 18.1349 11.1993C17.2154 9.93248 16.0099 9.0539 14.4673 8.67591C11.995 8.06294 9.28775 8.89044 7.73491 10.9132C7.52037 11.1891 7.30583 11.4751 7.03 11.6896C6.53963 12.0676 5.98796 12.1596 5.39543 11.8735C4.83354 11.6079 4.55771 11.1686 4.51685 10.5148Z" fill="#A5D167"/>
</svg>
