<svg width="24" height="24" viewBox="0 0 24 24" fill="none" xmlns="http://www.w3.org/2000/svg">
<path d="M3.35608 8.26554C3.35608 8.26554 3.36408 8.23345 3.39571 8.2137C4.62877 7.59518 5.89094 7.23565 7.25452 7.24611C7.56688 7.57414 7.85995 7.88833 8.16779 8.18732C8.60575 8.61267 9.05455 9.02686 9.51009 9.4483C9.52146 9.45078 9.54157 9.4625 9.54588 9.48745C9.78028 9.77126 10.0104 10.0301 10.205 10.2926C9.9529 10.2962 9.7363 10.2962 9.48163 10.2962C9.48163 10.899 9.48163 11.4503 9.4458 12.0001C9.1018 11.9985 8.79363 11.9985 8.48121 11.964C8.47697 11.6965 8.48091 11.4634 8.47595 11.2305C8.47008 10.9546 8.37095 10.7316 8.05574 10.7417C7.76395 10.7511 7.67362 10.96 7.67501 11.2264C7.67635 11.4837 7.66806 11.741 7.63006 11.9976C6.80809 11.9965 6.02006 11.9961 5.21968 11.9734C4.79742 11.3128 4.33798 10.6999 3.99309 10.0281C3.71007 9.47687 3.56327 8.85571 3.35608 8.26554Z" fill="#7F79DE"/>
<path d="M20.7642 8.49795C21.0573 8.74244 21.3475 8.9903 21.6438 9.23078C22.5357 9.95481 23.2672 10.8223 23.8999 11.7742C23.9707 11.8806 23.9992 12.0861 23.9448 12.194C23.1978 13.6743 22.1515 14.8833 20.6471 15.7095C20.6067 15.7183 20.5728 15.7152 20.5702 15.685C20.2956 14.271 19.6765 13.059 18.771 11.9732C19.2662 11.2663 19.7886 10.6053 20.2142 9.88701C20.4586 9.47451 20.5458 8.96891 20.7188 8.50307C20.7339 8.50093 20.7642 8.49795 20.7642 8.49795Z" fill="#FCD592"/>
<path d="M20.7722 8.46843C20.7643 8.49795 20.7339 8.50092 20.6937 8.49614C19.4526 7.77484 18.1863 7.25979 16.7628 7.19528C16.627 6.36568 16.5367 5.55832 16.3387 4.77832C16.2179 4.30283 15.9313 3.86947 15.7207 3.40009C15.7222 3.383 15.7258 3.34887 15.7258 3.34887C16.2414 3.2981 16.759 3.19124 17.2723 3.20853C18.2683 3.24209 19.263 3.33544 20.2555 3.43215C20.3836 3.44463 20.5634 3.60232 20.6044 3.7297C21.1033 5.2804 21.222 6.85063 20.7722 8.46843Z" fill="#F69797"/>
<path d="M3.33075 8.27118C3.56322 8.8557 3.71003 9.47687 3.99305 10.0281C4.33794 10.6999 4.79738 11.3128 5.20647 11.9952C5.03644 12.2364 4.85598 12.4249 4.69996 12.6319C4.06291 13.477 3.50867 14.366 3.2678 15.4208C3.25196 15.4206 3.2203 15.4194 3.2203 15.4194C1.97209 14.5806 0.969448 13.5013 0.116274 12.2716C-0.0193035 12.0761 -0.0407271 11.9273 0.0753563 11.707C0.836261 10.2632 1.87357 9.08586 3.33075 8.27118Z" fill="#98AFF3"/>
<path d="M20.5727 15.7152C20.5727 15.7152 20.6067 15.7183 20.6236 15.7199C20.6949 16.311 20.809 16.9025 20.79 17.4897C20.7594 18.4361 20.648 19.3803 20.5497 20.3232C20.5394 20.4217 20.4035 20.5547 20.299 20.5887C18.7253 21.1007 17.1342 21.2298 15.5039 20.7243C15.5189 20.6209 15.5508 20.5544 15.5881 20.4911C16.2664 19.3375 16.7253 18.1151 16.795 16.7597C17.6363 16.6195 18.4549 16.5225 19.2474 16.3222C19.7107 16.205 20.1323 15.923 20.5727 15.7152Z" fill="#F9F266"/>
<path d="M3.21814 15.4497C3.22031 15.4194 3.25197 15.4206 3.28318 15.4408C4.51219 16.2202 5.80205 16.7013 7.23373 16.7924C7.26099 18.1478 7.59381 19.3884 8.211 20.5705C8.20942 20.5868 8.20801 20.6196 8.20801 20.6196C6.7294 20.8946 5.25488 20.8466 3.77905 20.5851C3.52971 20.5409 3.42462 20.4197 3.35617 20.1968C2.87694 18.6365 2.79757 17.0662 3.21814 15.4497Z" fill="#89DEF4"/>
<path d="M7.24183 7.22548C5.89095 7.23565 4.62877 7.59518 3.40184 8.19835C3.06051 6.73204 3.13935 5.26516 3.39937 3.79604C3.44894 3.51594 3.59447 3.42254 3.84486 3.34394C5.39056 2.85878 6.94375 2.81246 8.54339 3.23113C8.57482 3.24977 8.57736 3.28463 8.55708 3.29949C7.75801 4.50313 7.2827 5.79239 7.24183 7.22548Z" fill="#D4A0DC"/>
<path d="M8.57735 3.28463C8.57735 3.28463 8.57481 3.24977 8.5741 3.23235C9.40775 1.97416 10.4796 0.975529 11.7014 0.125591C11.9058 -0.016577 12.0662 -0.0460609 12.2992 0.0786277C13.7306 0.844542 14.897 1.8846 15.7195 3.32413C15.7258 3.34887 15.7222 3.383 15.69 3.40352C15.4178 3.47819 15.1716 3.51361 14.9388 3.58983C14.0547 3.87926 13.2028 4.23532 12.4598 4.85963C12.1175 4.85913 11.8079 4.86016 11.4841 4.83807C10.6194 4.09019 9.67383 3.54473 8.57735 3.28463Z" fill="#EA9ABF"/>
<path d="M8.22731 20.636C8.20795 20.6196 8.20936 20.5868 8.24087 20.5724C8.83513 20.3881 9.41858 20.2664 9.955 20.0355C10.5277 19.789 11.0561 19.4393 11.6154 19.1601C11.9094 19.5597 12.1474 19.5438 12.4142 19.1427C13.1638 19.5845 13.8861 20.0249 14.6187 20.4475C14.85 20.5808 15.109 20.6662 15.3553 20.7735C15.0931 21.1436 14.8815 21.5671 14.5585 21.8729C13.8154 22.5761 13.0169 23.2207 12.2436 23.8922C12.0672 24.0453 11.9114 24.0189 11.7117 23.9152C10.2465 23.1545 9.08956 22.0715 8.22731 20.636Z" fill="#9AEFB0"/>
<path d="M15.3752 20.7699C15.109 20.6662 14.85 20.5808 14.6188 20.4474C13.8861 20.0249 13.1638 19.5845 12.4122 19.1085C12.387 18.3038 12.387 17.5414 12.387 16.7699C13.5679 16.6328 14.5043 16.1229 15.2948 15.3138C15.7974 15.8079 16.2793 16.2837 16.7613 16.7596C16.7253 18.1151 16.2664 19.3375 15.5881 20.4911C15.5508 20.5544 15.5189 20.6209 15.4757 20.7082C15.4429 20.7424 15.4189 20.7543 15.3752 20.7699Z" fill="#8CD954"/>
<path d="M11.4982 4.8612C11.8078 4.86016 12.1174 4.85912 12.4831 4.87547C13.7162 5.22134 14.3891 5.99538 14.4824 7.21934C14.5378 7.94595 14.5108 8.67883 14.5119 9.41816C14.4901 9.43879 14.4777 9.45063 14.4303 9.46228C12.777 9.46188 11.1592 9.46219 9.5415 9.46249C9.5415 9.46249 9.52139 9.45078 9.50629 9.41494C9.48978 8.79754 9.48828 8.21597 9.48695 7.6344C9.48353 6.1391 10.0783 5.31897 11.4982 4.8612Z" fill="white"/>
<path d="M9.48157 12.0017C9.48157 11.4503 9.48157 10.899 9.48157 10.2962C9.73624 10.2962 9.95284 10.2962 10.2366 10.2949C11.4649 10.2907 12.6261 10.2878 13.8207 10.2893C14.06 10.2938 14.2658 10.2938 14.4873 10.2938C14.4873 11.0026 14.4809 11.6667 14.4891 12.3307C14.4968 12.9464 14.3271 13.4993 13.9316 14.0073C13.4029 14.5982 12.7688 14.9036 11.9678 14.9133C11.1474 14.903 10.537 14.5323 10.0084 13.951C9.5651 13.3556 9.48274 12.6896 9.48157 12.0017Z" fill="white"/>
<path d="M7.23244 16.7582C5.80211 16.7013 4.51224 16.2202 3.29907 15.4411C3.50874 14.366 4.06297 13.477 4.70002 12.6319C4.85604 12.4249 5.03651 12.2364 5.21889 12.0175C6.02008 11.9961 6.80811 11.9965 7.63518 12.0316C7.62135 13.2633 7.94171 14.3393 8.69128 15.282C8.19111 15.7824 7.71177 16.2703 7.23244 16.7582Z" fill="#559CEC"/>
<path d="M8.71205 15.2696C7.94165 14.3393 7.62128 13.2633 7.66906 12.0323C7.66801 11.741 7.6763 11.4837 7.67496 11.2264C7.67357 10.96 7.7639 10.7511 8.05569 10.7417C8.3709 10.7316 8.47004 10.9546 8.47591 11.2305C8.48087 11.4634 8.47692 11.6965 8.47665 11.9981C8.42637 13.043 8.61969 13.9441 9.30279 14.7195C10.0227 15.559 10.915 15.978 12.028 15.9914C13.1307 15.9367 14.0407 15.5452 14.7394 14.6715C15.2753 14.0041 15.5413 13.2668 15.5241 12.4291C15.5155 12.0094 15.5127 11.589 15.5272 11.1696C15.5358 10.9217 15.66 10.7318 15.936 10.7405C16.2061 10.7489 16.3202 10.9244 16.3208 11.1863C16.3215 11.4578 16.3288 11.7292 16.3282 12.0344C16.3829 13.2771 16.0521 14.3589 15.2743 15.2955C14.5043 16.1229 13.5679 16.6328 12.387 16.7699C12.387 17.5414 12.387 18.3038 12.3889 19.1003C12.1475 19.5438 11.9094 19.5597 11.6186 19.126C11.6102 18.3042 11.6102 17.542 11.6102 16.7706C10.4287 16.6276 9.47836 16.1223 8.71205 15.2696Z" fill="white"/>
<path d="M11.4841 4.83807C10.0784 5.31897 9.48359 6.1391 9.48702 7.6344C9.48835 8.21597 9.48984 8.79754 9.49499 9.41247C9.05455 9.02686 8.60575 8.61267 8.16779 8.18732C7.85995 7.88833 7.56688 7.57414 7.25452 7.24611C7.2827 5.79239 7.75801 4.50313 8.55708 3.2995C9.67384 3.54473 10.6194 4.09019 11.4841 4.83807Z" fill="#E35F83"/>
<path d="M13.7872 10.2848C12.6261 10.2878 11.4649 10.2907 10.2721 10.2913C10.0103 10.0301 9.78018 9.77126 9.54578 9.48745C11.1592 9.46219 12.777 9.46188 14.419 9.48531C14.2246 9.76764 14.0059 10.0262 13.7872 10.2848Z" fill="#E35F83"/>
<path d="M9.29064 14.6973C8.61967 13.9441 8.42635 13.043 8.48088 12.0326C8.79357 11.9985 9.10173 11.9985 9.44574 12.0001C9.48274 12.6896 9.5651 13.3556 9.9842 13.9649C9.74268 14.2344 9.51666 14.4659 9.29064 14.6973Z" fill="#559CEC"/>
<path d="M13.8207 10.2893C14.006 10.0262 14.2246 9.76764 14.4546 9.48601C14.4777 9.45063 14.4901 9.43878 14.5381 9.41128C14.719 9.2664 14.872 9.14513 15.0088 9.00764C15.5961 8.41738 16.1786 7.82235 16.7628 7.22906C18.1863 7.25979 19.4525 7.77484 20.6786 8.49828C20.5457 8.9689 20.4585 9.4745 20.2142 9.88701C19.7886 10.6053 19.2662 11.2663 18.7379 11.973C17.9054 11.9967 17.1193 11.9987 16.3333 12.0006C16.3288 11.7292 16.3215 11.4578 16.3208 11.1863C16.3202 10.9244 16.2061 10.7489 15.936 10.7404C15.66 10.7318 15.5358 10.9217 15.5272 11.1696C15.5127 11.589 15.5155 12.0094 15.5241 12.4291C15.5413 13.2668 15.2752 14.0041 14.7154 14.6581C14.4318 14.4355 14.1909 14.2113 13.95 13.9871C14.3271 13.4992 14.4968 12.9464 14.4892 12.3307C14.4809 11.6667 14.4873 11.0026 14.4873 10.2938C14.2658 10.2938 14.06 10.2938 13.8207 10.2893Z" fill="#F59A57"/>
<path d="M16.3283 12.0344C17.1194 11.9987 17.9055 11.9967 18.7246 11.9949C19.6765 13.059 20.2957 14.271 20.5703 15.685C20.1324 15.923 19.7108 16.205 19.2474 16.3221C18.455 16.5224 17.6364 16.6195 16.7951 16.7597C16.2794 16.2837 15.7974 15.8079 15.2949 15.3138C16.0522 14.3589 16.383 13.2771 16.3283 12.0344Z" fill="#F7CC3C"/>
<path d="M16.7629 7.19528C16.1787 7.82236 15.5962 8.41738 15.0089 9.00765C14.8721 9.14513 14.719 9.2664 14.5472 9.40201C14.5109 8.67884 14.5379 7.94595 14.4825 7.21934C14.3892 5.99538 13.7163 5.22134 12.5159 4.87701C13.2029 4.23532 14.0547 3.87926 14.9388 3.58983C15.1716 3.51361 15.4178 3.47819 15.6885 3.42061C15.9313 3.86947 16.218 4.30283 16.3387 4.77832C16.5368 5.55832 16.6271 6.36567 16.7629 7.19528Z" fill="#E35F83"/>
<path d="M8.69126 15.282C9.47841 16.1223 10.4287 16.6276 11.6102 16.7706C11.6102 17.542 11.6102 18.3042 11.6071 19.1005C11.0562 19.4393 10.5278 19.789 9.95509 20.0355C9.41867 20.2664 8.83522 20.3881 8.24254 20.556C7.59385 19.3884 7.26102 18.1478 7.23376 16.7924C7.71176 16.2703 8.19109 15.7824 8.69126 15.282Z" fill="#51CF9F"/>
<path d="M9.30286 14.7195C9.51674 14.4659 9.74276 14.2344 9.99299 13.9892C10.5371 14.5323 11.1475 14.903 11.967 14.9464C11.9982 15.3189 11.9982 15.652 11.9982 15.9852C10.915 15.978 10.0227 15.559 9.30286 14.7195Z" fill="#51CF9F"/>
<path d="M12.028 15.9914C11.9981 15.652 11.9981 15.3189 11.999 14.9526C12.7689 14.9036 13.4029 14.5981 13.9316 14.0072C14.1909 14.2113 14.4319 14.4355 14.6968 14.6731C14.0408 15.5452 13.1307 15.9367 12.028 15.9914Z" fill="#8CD954"/>
</svg>
