<svg width="32" height="32" viewBox="0 0 32 32" fill="none" xmlns="http://www.w3.org/2000/svg">
<g filter="url(#filter0_b_166_585)">
<rect width="32" height="32" rx="11" fill="#FFFC00" fill-opacity="0.7"/>
<g clip-path="url(#clip0_166_585)">
<path d="M18.8301 14.8167L18.8467 14.6092C18.893 13.9641 18.9161 13.3176 18.9159 12.6708C18.9159 11.9458 18.6709 11.4325 18.1542 10.9517C17.6042 10.44 16.9384 10.1667 15.9959 10.1667C15.0484 10.1667 14.3642 10.4458 13.9042 10.9067C13.3242 11.4858 13.1059 11.9217 13.1059 12.6567C13.1059 13.0908 13.1567 14.3183 13.1859 14.8383C13.2096 15.2634 13.0698 15.6814 12.7951 16.0067C12.8409 16.0883 12.8826 16.1767 12.9226 16.2708C13.1726 16.9133 13.0876 17.5567 12.7959 18.1633C12.4692 18.845 12.1867 19.3242 11.6209 19.9583C11.4529 20.147 11.2743 20.3259 11.0859 20.4942C11.2271 20.6297 11.3433 20.7891 11.4292 20.965C11.8703 20.9258 12.3146 20.9466 12.7501 21.0267C13.4251 21.1483 13.8534 21.3883 14.5784 21.9108L14.5917 21.92L14.7692 22.0467C15.2851 22.4133 15.5001 22.5017 15.9967 22.5017C16.5042 22.5017 16.7551 22.4008 17.2659 22.0417L17.4384 21.92C18.1684 21.3933 18.6109 21.1467 19.2976 21.0233C19.7267 20.952 20.1627 20.9313 20.5967 20.9617C20.6837 20.7849 20.8014 20.6249 20.9442 20.4892C20.7644 20.327 20.593 20.1557 20.4309 19.9758C19.9461 19.4357 19.5401 18.8297 19.2251 18.1758C18.9226 17.5517 18.8334 16.8925 19.1109 16.2417C19.1442 16.16 19.1817 16.0833 19.2209 16.0117C18.9394 15.6794 18.7991 15.2502 18.8301 14.8158V14.8167ZM10.2342 14.7317C10.5834 14.7317 10.7342 14.9858 11.2501 14.9858C11.3809 14.9858 11.4667 14.9567 11.5217 14.9308C11.5142 14.8008 11.4392 13.2758 11.4392 12.6567C11.4392 11.25 12.0392 10.415 12.7251 9.72833C13.4109 9.04167 14.4792 8.5 15.9967 8.5C17.5134 8.5 18.5517 9.04417 19.2901 9.73167C20.0284 10.4192 20.5826 11.34 20.5826 12.6717C20.5826 13.9675 20.5001 14.8333 20.4926 14.935C20.5644 14.9719 20.6443 14.9905 20.7251 14.9892C21.2501 14.9892 21.2501 14.7308 21.8334 14.7308C22.4042 14.7308 22.6526 15.2058 22.6526 15.4167C22.6526 15.9342 21.9584 16.2225 21.5442 16.355C21.2367 16.4525 20.7684 16.5975 20.6484 16.8842C20.5867 17.0292 20.6126 17.2175 20.7251 17.4492C20.7276 17.4558 21.7751 19.8517 24.0001 20.2208C24.1959 20.25 24.3259 20.4217 24.3259 20.6233C24.3259 20.9 24.0176 21.1375 23.7209 21.275C23.3517 21.4417 22.8117 21.5833 22.0942 21.6958C22.0584 21.7608 21.9826 22.1 21.8984 22.435C21.7859 22.8867 21.2309 22.74 21.0726 22.7067C20.5802 22.603 20.0731 22.5895 19.5759 22.6667C19.1742 22.7392 18.8151 22.9817 18.4134 23.2717C17.8192 23.6917 17.1926 24.1683 15.9967 24.1683C14.8001 24.1683 14.2101 23.6917 13.6159 23.2717C13.2142 22.9817 12.8617 22.7408 12.4526 22.6667C11.7042 22.5308 11.1442 22.6967 10.9567 22.7142C10.7684 22.7308 10.2551 22.9175 10.1267 22.4417C10.0892 22.3033 9.96755 21.7683 9.93089 21.6958C9.21755 21.5833 8.67422 21.435 8.30422 21.2683C8.00005 21.1308 7.69922 20.8992 7.69922 20.6192C7.69922 20.4233 7.83089 20.2525 8.02505 20.2175C10.2284 19.815 11.1634 17.7133 11.2934 17.4425C11.4034 17.2125 11.4276 17.0258 11.3692 16.8767C11.2501 16.5908 10.7826 16.4492 10.4751 16.3475C10.3876 16.3192 9.36172 16.0367 9.36172 15.4167C9.36172 15.2167 9.53255 14.9392 9.84672 14.8083C9.9704 14.7603 10.1016 14.7343 10.2342 14.7317V14.7317Z" fill="white"/>
</g>
</g>
<defs>
<filter id="filter0_b_166_585" x="-4" y="-4" width="40" height="40" filterUnits="userSpaceOnUse" color-interpolation-filters="sRGB">
<feFlood flood-opacity="0" result="BackgroundImageFix"/>
<feGaussianBlur in="BackgroundImageFix" stdDeviation="2"/>
<feComposite in2="SourceAlpha" operator="in" result="effect1_backgroundBlur_166_585"/>
<feBlend mode="normal" in="SourceGraphic" in2="effect1_backgroundBlur_166_585" result="shape"/>
</filter>
<clipPath id="clip0_166_585">
<rect width="20" height="20" fill="white" transform="translate(6 6)"/>
</clipPath>
</defs>
</svg>
