<svg width="24" height="24" viewBox="0 0 24 24" fill="none" xmlns="http://www.w3.org/2000/svg">
<g clip-path="url(#clip0_166_606)">
<path d="M11.9999 -3.10501e-06C5.37265 -3.10501e-06 0 5.37247 0 11.9997C0 18.6272 5.37265 23.9995 11.9999 23.9995C18.6279 23.9995 24 18.6273 24 11.9997C24 5.37283 18.6279 0.000536896 11.9997 0.000536896L11.9999 -0.000183105V-3.10501e-06ZM17.5031 17.3072C17.2881 17.6597 16.8268 17.7716 16.4742 17.5551C13.6568 15.8341 10.1099 15.4444 5.93282 16.3988C5.53033 16.4904 5.12911 16.2382 5.03731 15.8355C4.94515 15.4329 5.19643 15.0317 5.59999 14.94C10.1711 13.8957 14.0921 14.3453 17.2552 16.2783C17.6078 16.4947 17.7196 16.9546 17.5031 17.3072ZM18.9719 14.0399C18.701 14.48 18.125 14.6189 17.685 14.3482C14.4594 12.3655 9.54272 11.7913 5.72743 12.9496C5.23261 13.099 4.71007 12.8202 4.55995 12.3262C4.41091 11.8314 4.68991 11.31 5.18383 11.1595C9.54182 9.8372 14.9597 10.4776 18.6639 12.7539C19.1038 13.0248 19.2428 13.6008 18.972 14.0402V14.04L18.9719 14.0399ZM19.098 10.6375C15.2304 8.34032 8.84954 8.12918 5.15701 9.24986C4.56409 9.42968 3.93697 9.09506 3.75733 8.50196C3.57769 7.90868 3.91213 7.2821 4.50541 7.10191C8.74424 5.81509 15.7907 6.06367 20.2436 8.70716C20.778 9.02378 20.953 9.71246 20.6362 10.2451C20.3208 10.7784 19.6301 10.9543 19.0986 10.6375H19.098Z" fill="#1ED760"/>
</g>
<defs>
<clipPath id="clip0_166_606">
<rect width="24" height="23.9995" fill="white"/>
</clipPath>
</defs>
</svg>
