<svg width="32" height="32" viewBox="0 0 32 32" fill="none" xmlns="http://www.w3.org/2000/svg">
<g filter="url(#filter0_b_166_594)">
<rect width="32" height="32" rx="11" fill="#BC8031" fill-opacity="0.7"/>
<g clip-path="url(#clip0_166_594)">
<path d="M16 24.3333C11.3975 24.3333 7.66663 20.6025 7.66663 16C7.66663 11.3975 11.3975 7.66666 16 7.66666C20.6025 7.66666 24.3333 11.3975 24.3333 16C24.3333 20.6025 20.6025 24.3333 16 24.3333ZM14.0916 22.3892C13.2695 20.6453 12.7932 18.7585 12.6891 16.8333H9.38496C9.54711 18.1157 10.0782 19.3235 10.9138 20.3097C11.7493 21.296 12.8533 22.0184 14.0916 22.3892V22.3892ZM14.3583 16.8333C14.4841 18.8658 15.065 20.775 16 22.46C16.9602 20.7305 17.5212 18.8079 17.6416 16.8333H14.3583V16.8333ZM22.615 16.8333H19.3108C19.2067 18.7585 18.7304 20.6453 17.9083 22.3892C19.1466 22.0184 20.2506 21.296 21.0862 20.3097C21.9217 19.3235 22.4528 18.1157 22.615 16.8333V16.8333ZM9.38496 15.1667H12.6891C12.7932 13.2415 13.2695 11.3547 14.0916 9.61082C12.8533 9.98156 11.7493 10.704 10.9138 11.6902C10.0782 12.6765 9.54711 13.8842 9.38496 15.1667V15.1667ZM14.3591 15.1667H17.6408C17.5206 13.1922 16.9599 11.2696 16 9.53999C15.0397 11.2695 14.4788 13.1921 14.3583 15.1667H14.3591ZM17.9083 9.61082C18.7304 11.3547 19.2067 13.2415 19.3108 15.1667H22.615C22.4528 13.8842 21.9217 12.6765 21.0862 11.6902C20.2506 10.704 19.1466 9.98156 17.9083 9.61082V9.61082Z" fill="white"/>
</g>
</g>
<defs>
<filter id="filter0_b_166_594" x="-4" y="-4" width="40" height="40" filterUnits="userSpaceOnUse" color-interpolation-filters="sRGB">
<feFlood flood-opacity="0" result="BackgroundImageFix"/>
<feGaussianBlur in="BackgroundImageFix" stdDeviation="2"/>
<feComposite in2="SourceAlpha" operator="in" result="effect1_backgroundBlur_166_594"/>
<feBlend mode="normal" in="SourceGraphic" in2="effect1_backgroundBlur_166_594" result="shape"/>
</filter>
<clipPath id="clip0_166_594">
<rect width="20" height="20" fill="white" transform="translate(6 6)"/>
</clipPath>
</defs>
</svg>
