<svg width="32" height="32" viewBox="0 0 32 32" fill="none" xmlns="http://www.w3.org/2000/svg">
<g filter="url(#filter0_b_166_591)">
<rect width="32" height="32" rx="11" fill="#264562" fill-opacity="0.7"/>
<path d="M15.167 7.66666V13.0116C14.8289 12.9492 14.4807 12.9167 14.1253 12.9167C10.9727 12.9167 8.41699 15.4723 8.41699 18.625C8.41699 21.7777 10.9727 24.3333 14.1253 24.3333C17.2779 24.3333 19.8337 21.7777 19.8337 18.625V15.5113C20.6972 15.8782 21.6385 16.0833 22.6671 16.0833H23.5004V11.4167H22.6671C21.0805 11.4167 19.8337 10.1355 19.8337 8.49999V7.66666H15.167ZM16.8337 9.33332H18.24C18.5682 11.1834 19.9727 12.6634 21.8337 13.0076V14.3568C20.9687 14.23 20.1878 13.9054 19.4639 13.4208L18.167 12.5527V18.625C18.167 20.8572 16.3575 22.6667 14.1253 22.6667C11.8932 22.6667 10.0837 20.8572 10.0837 18.625C10.0837 16.3928 11.8932 14.5833 14.1253 14.5833C14.1953 14.5833 14.2647 14.5851 14.3338 14.5886V15.9246C14.265 15.9193 14.1955 15.9167 14.1253 15.9167C12.6296 15.9167 11.417 17.1292 11.417 18.625C11.417 20.1207 12.6296 21.3333 14.1253 21.3333C15.6211 21.3333 16.8337 20.1207 16.8337 18.625C16.8337 15.5278 16.8327 12.4305 16.8337 9.33332ZM13.0837 18.625C13.0837 18.0497 13.55 17.5833 14.1253 17.5833C14.7006 17.5833 15.167 18.0497 15.167 18.625C15.167 19.2003 14.7006 19.6667 14.1253 19.6667C13.55 19.6667 13.0837 19.2003 13.0837 18.625Z" fill="white"/>
</g>
<defs>
<filter id="filter0_b_166_591" x="-4" y="-4" width="40" height="40" filterUnits="userSpaceOnUse" color-interpolation-filters="sRGB">
<feFlood flood-opacity="0" result="BackgroundImageFix"/>
<feGaussianBlur in="BackgroundImageFix" stdDeviation="2"/>
<feComposite in2="SourceAlpha" operator="in" result="effect1_backgroundBlur_166_591"/>
<feBlend mode="normal" in="SourceGraphic" in2="effect1_backgroundBlur_166_591" result="shape"/>
</filter>
</defs>
</svg>
